<mxfile host="app.diagrams.net" modified="2023-05-03T16:06:21.648Z" agent="Mozilla/5.0 (Windows NT 10.0; Win64; x64) AppleWebKit/537.36 (KHTML, like Gecko) Chrome/112.0.0.0 Safari/537.36" etag="q-ul8hId6zto0WqbNIZu" version="21.2.1" type="github">
  <diagram name="Page-1" id="SCXiTu6CzjOkCHRBqZat">
    <mxGraphModel dx="4179" dy="1443" grid="1" gridSize="10" guides="1" tooltips="1" connect="1" arrows="1" fold="1" page="1" pageScale="1" pageWidth="850" pageHeight="1100" math="0" shadow="0">
      <root>
        <mxCell id="0" />
        <mxCell id="1" parent="0" />
        <mxCell id="LF6kgBspMSefZ2zHdYAv-96" value="" style="rounded=0;whiteSpace=wrap;html=1;fillColor=#FFCCCC;" vertex="1" parent="1">
          <mxGeometry x="-160" y="370" width="1560" height="1180" as="geometry" />
        </mxCell>
        <mxCell id="LF6kgBspMSefZ2zHdYAv-87" style="edgeStyle=orthogonalEdgeStyle;rounded=0;orthogonalLoop=1;jettySize=auto;html=1;" edge="1" parent="1" source="LF6kgBspMSefZ2zHdYAv-8" target="LF6kgBspMSefZ2zHdYAv-70">
          <mxGeometry relative="1" as="geometry" />
        </mxCell>
        <mxCell id="LF6kgBspMSefZ2zHdYAv-2" value="" style="rounded=0;whiteSpace=wrap;html=1;fillColor=#F6FF7A;" vertex="1" parent="1">
          <mxGeometry x="210" y="540" width="810" height="830" as="geometry" />
        </mxCell>
        <mxCell id="LF6kgBspMSefZ2zHdYAv-4" value="" style="shape=image;verticalLabelPosition=bottom;labelBackgroundColor=default;verticalAlign=top;aspect=fixed;imageAspect=0;image=data:image/png,iVBORw0KGgoAAAANSUhEUgAAAE0AAABVCAYAAAAMjGlGAAAAAXNSR0IArs4c6QAAAARnQU1BAACxjwv8YQUAAAAJcEhZcwAAEnQAABJ0Ad5mH3gAAAZbSURBVHhe7ZvtT1NXHMe/pYW20Fae5GFAEQISncTnoBKKzKhLKDAmwsu98I1vNMbE+MLoP2F8Ykt0L+aSZWRzi2MSecYHHEapIIvTyQaOJ3kooC1C6+7vrCwGQemxvfei55M0JLctvfeTc77nd885V/NSAgK/CPH9FfiBkMaBkMaBkMaBkMaBkMaBkMaBkMaBkMaBkMaBkMaBkMaBkMaBkMaBkMaBkMaBkMaBkMaBkMaBkMaBKhZWnE4nenp62Cs0NBSpqalITk6G0Wj0fUJdKCptcHAQP1f/irr6Bky4pxEeZ4Vn5gVcQ72Ii45CaZEdtrxcWCwWaDQa37eURzFpd9sduPjd9+jXRsO04mPoDOHQR1jg9Xrw4vkEZtwujDiasMEai4qyUqRaraoRp4i0uw4HvvmhGoNhsfhoQz5M0XEI0Wp97/6HZ2YGzgGpy96oxvr4CFR8ZpfEpahCnOwDAXXJny5Xow8mWLfsgjk24TVhhFanQ3RSGtK3f44bD3rR2NKC8YkJKJgm/yO7tPrGZvw9E4GkTTtgtES9teWQ1FRbCZo6HuN+1+8fnrTx8XEpy9ox6dXBvDxh0V1teVoWuvsG8eDBH5iamvIdVQ5ZpfX19bFRMsxkQUjI611yIbS6UBiWxaBvaAhjY2OKtzZZpQ0PD+Nl+DKYYhKlIci/QI+2rsS424MJKdeURlZp4eHhwNRzTD1z+o4snmfD/dBrNdDr9b4jyiGrtMTEROi8bkyODEHqY76ji2P0n27ERpoQGRnpO6IcskqLiYnBCqlI1Uu/Oi0Vr4vFNTGGSFM4K3AjIiIUr9VklaaTaq9dOz6BebwHf91plhqb1/fOm3FcvohNaQlYm50tDSCynvK8yH4GmRkZ2G3LwfTjdvR2tL11JOys+xGJmknstOUiIT5OFXcEitxGTU5Ooqa+Ed9e+gX6lVuQmfspwozSIPEKrgkn7lz6GvFeJ74oL8Wm9WthMOg/XGkEieu834Wq6lo0t/6GlzoDtEYTk/JsdBBmox72gjwU7tyO9LR01QgjFJ0amp6exvDICJtH+/NxNyq//AopKSkoKbYzUcnJSVhmsUAr3ZuqRRihqLRZPB4P3G43Dhw4gHXr1mHfvn1sAlINoT8fqjgraklUSoSFhTFZahZGqPfMVIyQxoGQxoGQxoGQxkHAS46bN2/i5MmTaG1t9R1ZPENDQ2zqh5bs/KWwsBAHDx5Eenp60Gu6gEtzuVwYHR1lf/3l+PHjWLNmDfbu3et3yWEymRAVFcUWm5ectHdh//792LhxIytuRZ32niGkcSCkcaBJSkoKaKYZDAYcPnyY5ZO/ubRUMk3T29sbUGk0cpnNZjaa+TuKLRlpYvT0H5FpHAhpHAhpHAhpHAhpHAhpHAhpHKhKGk3t0KqU2lGNtFOnTrG1z6tXr+LKlSvwehe3OUYJVCGNJD19+pRNPtrtdrS1tcHhcKhiU/J8KC7t4cOHqK+vR3Z2NjZv3ozi4mJ209/Y2Ij+/n5VilNcGnVLeg6qqKiI7V+j16FDh9DR0YGamhohbS6nT59mW0pJ2KubXGien8S1t7ezjFNbvikmjVoRrT7l5eWxnUJzp5FWrVrF3qPVrXv37qmqxSkibTbHVq9ezXKMhM2VRlNDJSUlbFOM2vJNEWlnzpxBfHw8SktL37j3jMQdOXIEt2/fRl1d3Ycr7ezZs4iNjWXCSMpCwmYhqUePHsWtW7dQW1urinyTVRrl2MDAAPLz8+fNsYWgfKPvXL9+nY2qSrc42aQ9evSIZRMJyMnJmTfHFoI+Ry2TypGmpiYmXklxskijCzx37hy7tywrK+PaQ0ufP3bsGGttDQ0NrJsqJS7o0ujCKisr2eM5dJvkr6y50H6PlpYW1mrpfyshLqjS6IKoOKVygTLJGoDn0Kl7FxQUsG7a2dmpiLigSqMco4vLysrC1q1b31nYLHv27GFdnFobPd793kijbe7nz59nC8fl5eUBX8ekbnrt2jU0NzfLnm9BkUbCLly4wCYUKyoqAtbC5nLixAnW2uQWF3BpdPJ0i/TkyRPYbLaA5NhCzOYbjaZdXV2y5VvApXV3d7OyICMjA9u2bQuasFko36h+oxGVJjLlIOB7OairkKjc3NygC3uVqqoqNpGZmZkZ9N9V1QaYpULQRs/3GSHNb4B/ATjHg9VyRplsAAAAAElFTkSuQmCC;" vertex="1" parent="1">
          <mxGeometry x="1165" y="960" width="77" height="85" as="geometry" />
        </mxCell>
        <mxCell id="LF6kgBspMSefZ2zHdYAv-6" value="" style="shape=image;verticalLabelPosition=bottom;labelBackgroundColor=default;verticalAlign=top;aspect=fixed;imageAspect=0;image=data:image/png,iVBORw0KGgoAAAANSUhEUgAAAE0AAABVCAYAAAAMjGlGAAAAAXNSR0IArs4c6QAAAARnQU1BAACxjwv8YQUAAAAJcEhZcwAAEnQAABJ0Ad5mH3gAAAZbSURBVHhe7ZvtT1NXHMe/pYW20Fae5GFAEQISncTnoBKKzKhLKDAmwsu98I1vNMbE+MLoP2F8Ykt0L+aSZWRzi2MSecYHHEapIIvTyQaOJ3kooC1C6+7vrCwGQemxvfei55M0JLctvfeTc77nd885V/NSAgK/CPH9FfiBkMaBkMaBkMaBkMaBkMaBkMaBkMaBkMaBkMaBkMaBkMaBkMaBkMaBkMaBkMaBkMaBkMaBkMaBkMaBKhZWnE4nenp62Cs0NBSpqalITk6G0Wj0fUJdKCptcHAQP1f/irr6Bky4pxEeZ4Vn5gVcQ72Ii45CaZEdtrxcWCwWaDQa37eURzFpd9sduPjd9+jXRsO04mPoDOHQR1jg9Xrw4vkEZtwujDiasMEai4qyUqRaraoRp4i0uw4HvvmhGoNhsfhoQz5M0XEI0Wp97/6HZ2YGzgGpy96oxvr4CFR8ZpfEpahCnOwDAXXJny5Xow8mWLfsgjk24TVhhFanQ3RSGtK3f44bD3rR2NKC8YkJKJgm/yO7tPrGZvw9E4GkTTtgtES9teWQ1FRbCZo6HuN+1+8fnrTx8XEpy9ox6dXBvDxh0V1teVoWuvsG8eDBH5iamvIdVQ5ZpfX19bFRMsxkQUjI611yIbS6UBiWxaBvaAhjY2OKtzZZpQ0PD+Nl+DKYYhKlIci/QI+2rsS424MJKdeURlZp4eHhwNRzTD1z+o4snmfD/dBrNdDr9b4jyiGrtMTEROi8bkyODEHqY76ji2P0n27ERpoQGRnpO6IcskqLiYnBCqlI1Uu/Oi0Vr4vFNTGGSFM4K3AjIiIUr9VklaaTaq9dOz6BebwHf91plhqb1/fOm3FcvohNaQlYm50tDSCynvK8yH4GmRkZ2G3LwfTjdvR2tL11JOys+xGJmknstOUiIT5OFXcEitxGTU5Ooqa+Ed9e+gX6lVuQmfspwozSIPEKrgkn7lz6GvFeJ74oL8Wm9WthMOg/XGkEieu834Wq6lo0t/6GlzoDtEYTk/JsdBBmox72gjwU7tyO9LR01QgjFJ0amp6exvDICJtH+/NxNyq//AopKSkoKbYzUcnJSVhmsUAr3ZuqRRihqLRZPB4P3G43Dhw4gHXr1mHfvn1sAlINoT8fqjgraklUSoSFhTFZahZGqPfMVIyQxoGQxoGQxoGQxkHAS46bN2/i5MmTaG1t9R1ZPENDQ2zqh5bs/KWwsBAHDx5Eenp60Gu6gEtzuVwYHR1lf/3l+PHjWLNmDfbu3et3yWEymRAVFcUWm5ectHdh//792LhxIytuRZ32niGkcSCkcaBJSkoKaKYZDAYcPnyY5ZO/ubRUMk3T29sbUGk0cpnNZjaa+TuKLRlpYvT0H5FpHAhpHAhpHAhpHAhpHAhpHAhpHKhKGk3t0KqU2lGNtFOnTrG1z6tXr+LKlSvwehe3OUYJVCGNJD19+pRNPtrtdrS1tcHhcKhiU/J8KC7t4cOHqK+vR3Z2NjZv3ozi4mJ209/Y2Ij+/n5VilNcGnVLeg6qqKiI7V+j16FDh9DR0YGamhohbS6nT59mW0pJ2KubXGien8S1t7ezjFNbvikmjVoRrT7l5eWxnUJzp5FWrVrF3qPVrXv37qmqxSkibTbHVq9ezXKMhM2VRlNDJSUlbFOM2vJNEWlnzpxBfHw8SktL37j3jMQdOXIEt2/fRl1d3Ycr7ezZs4iNjWXCSMpCwmYhqUePHsWtW7dQW1urinyTVRrl2MDAAPLz8+fNsYWgfKPvXL9+nY2qSrc42aQ9evSIZRMJyMnJmTfHFoI+Ry2TypGmpiYmXklxskijCzx37hy7tywrK+PaQ0ufP3bsGGttDQ0NrJsqJS7o0ujCKisr2eM5dJvkr6y50H6PlpYW1mrpfyshLqjS6IKoOKVygTLJGoDn0Kl7FxQUsG7a2dmpiLigSqMco4vLysrC1q1b31nYLHv27GFdnFobPd793kijbe7nz59nC8fl5eUBX8ekbnrt2jU0NzfLnm9BkUbCLly4wCYUKyoqAtbC5nLixAnW2uQWF3BpdPJ0i/TkyRPYbLaA5NhCzOYbjaZdXV2y5VvApXV3d7OyICMjA9u2bQuasFko36h+oxGVJjLlIOB7OairkKjc3NygC3uVqqoqNpGZmZkZ9N9V1QaYpULQRs/3GSHNb4B/ATjHg9VyRplsAAAAAElFTkSuQmCC;" vertex="1" parent="1">
          <mxGeometry y="1110" width="77" height="85" as="geometry" />
        </mxCell>
        <mxCell id="LF6kgBspMSefZ2zHdYAv-7" value="" style="shape=image;verticalLabelPosition=bottom;labelBackgroundColor=default;verticalAlign=top;aspect=fixed;imageAspect=0;image=data:image/png,iVBORw0KGgoAAAANSUhEUgAAAE0AAABVCAYAAAAMjGlGAAAAAXNSR0IArs4c6QAAAARnQU1BAACxjwv8YQUAAAAJcEhZcwAAEnQAABJ0Ad5mH3gAAAZbSURBVHhe7ZvtT1NXHMe/pYW20Fae5GFAEQISncTnoBKKzKhLKDAmwsu98I1vNMbE+MLoP2F8Ykt0L+aSZWRzi2MSecYHHEapIIvTyQaOJ3kooC1C6+7vrCwGQemxvfei55M0JLctvfeTc77nd885V/NSAgK/CPH9FfiBkMaBkMaBkMaBkMaBkMaBkMaBkMaBkMaBkMaBkMaBkMaBkMaBkMaBkMaBkMaBkMaBkMaBkMaBkMaBKhZWnE4nenp62Cs0NBSpqalITk6G0Wj0fUJdKCptcHAQP1f/irr6Bky4pxEeZ4Vn5gVcQ72Ii45CaZEdtrxcWCwWaDQa37eURzFpd9sduPjd9+jXRsO04mPoDOHQR1jg9Xrw4vkEZtwujDiasMEai4qyUqRaraoRp4i0uw4HvvmhGoNhsfhoQz5M0XEI0Wp97/6HZ2YGzgGpy96oxvr4CFR8ZpfEpahCnOwDAXXJny5Xow8mWLfsgjk24TVhhFanQ3RSGtK3f44bD3rR2NKC8YkJKJgm/yO7tPrGZvw9E4GkTTtgtES9teWQ1FRbCZo6HuN+1+8fnrTx8XEpy9ox6dXBvDxh0V1teVoWuvsG8eDBH5iamvIdVQ5ZpfX19bFRMsxkQUjI611yIbS6UBiWxaBvaAhjY2OKtzZZpQ0PD+Nl+DKYYhKlIci/QI+2rsS424MJKdeURlZp4eHhwNRzTD1z+o4snmfD/dBrNdDr9b4jyiGrtMTEROi8bkyODEHqY76ji2P0n27ERpoQGRnpO6IcskqLiYnBCqlI1Uu/Oi0Vr4vFNTGGSFM4K3AjIiIUr9VklaaTaq9dOz6BebwHf91plhqb1/fOm3FcvohNaQlYm50tDSCynvK8yH4GmRkZ2G3LwfTjdvR2tL11JOys+xGJmknstOUiIT5OFXcEitxGTU5Ooqa+Ed9e+gX6lVuQmfspwozSIPEKrgkn7lz6GvFeJ74oL8Wm9WthMOg/XGkEieu834Wq6lo0t/6GlzoDtEYTk/JsdBBmox72gjwU7tyO9LR01QgjFJ0amp6exvDICJtH+/NxNyq//AopKSkoKbYzUcnJSVhmsUAr3ZuqRRihqLRZPB4P3G43Dhw4gHXr1mHfvn1sAlINoT8fqjgraklUSoSFhTFZahZGqPfMVIyQxoGQxoGQxoGQxkHAS46bN2/i5MmTaG1t9R1ZPENDQ2zqh5bs/KWwsBAHDx5Eenp60Gu6gEtzuVwYHR1lf/3l+PHjWLNmDfbu3et3yWEymRAVFcUWm5ectHdh//792LhxIytuRZ32niGkcSCkcaBJSkoKaKYZDAYcPnyY5ZO/ubRUMk3T29sbUGk0cpnNZjaa+TuKLRlpYvT0H5FpHAhpHAhpHAhpHAhpHAhpHAhpHKhKGk3t0KqU2lGNtFOnTrG1z6tXr+LKlSvwehe3OUYJVCGNJD19+pRNPtrtdrS1tcHhcKhiU/J8KC7t4cOHqK+vR3Z2NjZv3ozi4mJ209/Y2Ij+/n5VilNcGnVLeg6qqKiI7V+j16FDh9DR0YGamhohbS6nT59mW0pJ2KubXGien8S1t7ezjFNbvikmjVoRrT7l5eWxnUJzp5FWrVrF3qPVrXv37qmqxSkibTbHVq9ezXKMhM2VRlNDJSUlbFOM2vJNEWlnzpxBfHw8SktL37j3jMQdOXIEt2/fRl1d3Ycr7ezZs4iNjWXCSMpCwmYhqUePHsWtW7dQW1urinyTVRrl2MDAAPLz8+fNsYWgfKPvXL9+nY2qSrc42aQ9evSIZRMJyMnJmTfHFoI+Ry2TypGmpiYmXklxskijCzx37hy7tywrK+PaQ0ufP3bsGGttDQ0NrJsqJS7o0ujCKisr2eM5dJvkr6y50H6PlpYW1mrpfyshLqjS6IKoOKVygTLJGoDn0Kl7FxQUsG7a2dmpiLigSqMco4vLysrC1q1b31nYLHv27GFdnFobPd793kijbe7nz59nC8fl5eUBX8ekbnrt2jU0NzfLnm9BkUbCLly4wCYUKyoqAtbC5nLixAnW2uQWF3BpdPJ0i/TkyRPYbLaA5NhCzOYbjaZdXV2y5VvApXV3d7OyICMjA9u2bQuasFko36h+oxGVJjLlIOB7OairkKjc3NygC3uVqqoqNpGZmZkZ9N9V1QaYpULQRs/3GSHNb4B/ATjHg9VyRplsAAAAAElFTkSuQmCC;" vertex="1" parent="1">
          <mxGeometry x="5" y="912.5" width="77" height="85" as="geometry" />
        </mxCell>
        <mxCell id="LF6kgBspMSefZ2zHdYAv-8" value="" style="shape=image;verticalLabelPosition=bottom;labelBackgroundColor=default;verticalAlign=top;aspect=fixed;imageAspect=0;image=data:image/png,iVBORw0KGgoAAAANSUhEUgAAAE0AAABVCAYAAAAMjGlGAAAAAXNSR0IArs4c6QAAAARnQU1BAACxjwv8YQUAAAAJcEhZcwAAEnQAABJ0Ad5mH3gAAAZbSURBVHhe7ZvtT1NXHMe/pYW20Fae5GFAEQISncTnoBKKzKhLKDAmwsu98I1vNMbE+MLoP2F8Ykt0L+aSZWRzi2MSecYHHEapIIvTyQaOJ3kooC1C6+7vrCwGQemxvfei55M0JLctvfeTc77nd885V/NSAgK/CPH9FfiBkMaBkMaBkMaBkMaBkMaBkMaBkMaBkMaBkMaBkMaBkMaBkMaBkMaBkMaBkMaBkMaBkMaBkMaBkMaBKhZWnE4nenp62Cs0NBSpqalITk6G0Wj0fUJdKCptcHAQP1f/irr6Bky4pxEeZ4Vn5gVcQ72Ii45CaZEdtrxcWCwWaDQa37eURzFpd9sduPjd9+jXRsO04mPoDOHQR1jg9Xrw4vkEZtwujDiasMEai4qyUqRaraoRp4i0uw4HvvmhGoNhsfhoQz5M0XEI0Wp97/6HZ2YGzgGpy96oxvr4CFR8ZpfEpahCnOwDAXXJny5Xow8mWLfsgjk24TVhhFanQ3RSGtK3f44bD3rR2NKC8YkJKJgm/yO7tPrGZvw9E4GkTTtgtES9teWQ1FRbCZo6HuN+1+8fnrTx8XEpy9ox6dXBvDxh0V1teVoWuvsG8eDBH5iamvIdVQ5ZpfX19bFRMsxkQUjI611yIbS6UBiWxaBvaAhjY2OKtzZZpQ0PD+Nl+DKYYhKlIci/QI+2rsS424MJKdeURlZp4eHhwNRzTD1z+o4snmfD/dBrNdDr9b4jyiGrtMTEROi8bkyODEHqY76ji2P0n27ERpoQGRnpO6IcskqLiYnBCqlI1Uu/Oi0Vr4vFNTGGSFM4K3AjIiIUr9VklaaTaq9dOz6BebwHf91plhqb1/fOm3FcvohNaQlYm50tDSCynvK8yH4GmRkZ2G3LwfTjdvR2tL11JOys+xGJmknstOUiIT5OFXcEitxGTU5Ooqa+Ed9e+gX6lVuQmfspwozSIPEKrgkn7lz6GvFeJ74oL8Wm9WthMOg/XGkEieu834Wq6lo0t/6GlzoDtEYTk/JsdBBmox72gjwU7tyO9LR01QgjFJ0amp6exvDICJtH+/NxNyq//AopKSkoKbYzUcnJSVhmsUAr3ZuqRRihqLRZPB4P3G43Dhw4gHXr1mHfvn1sAlINoT8fqjgraklUSoSFhTFZahZGqPfMVIyQxoGQxoGQxoGQxkHAS46bN2/i5MmTaG1t9R1ZPENDQ2zqh5bs/KWwsBAHDx5Eenp60Gu6gEtzuVwYHR1lf/3l+PHjWLNmDfbu3et3yWEymRAVFcUWm5ectHdh//792LhxIytuRZ32niGkcSCkcaBJSkoKaKYZDAYcPnyY5ZO/ubRUMk3T29sbUGk0cpnNZjaa+TuKLRlpYvT0H5FpHAhpHAhpHAhpHAhpHAhpHAhpHKhKGk3t0KqU2lGNtFOnTrG1z6tXr+LKlSvwehe3OUYJVCGNJD19+pRNPtrtdrS1tcHhcKhiU/J8KC7t4cOHqK+vR3Z2NjZv3ozi4mJ209/Y2Ij+/n5VilNcGnVLeg6qqKiI7V+j16FDh9DR0YGamhohbS6nT59mW0pJ2KubXGien8S1t7ezjFNbvikmjVoRrT7l5eWxnUJzp5FWrVrF3qPVrXv37qmqxSkibTbHVq9ezXKMhM2VRlNDJSUlbFOM2vJNEWlnzpxBfHw8SktL37j3jMQdOXIEt2/fRl1d3Ycr7ezZs4iNjWXCSMpCwmYhqUePHsWtW7dQW1urinyTVRrl2MDAAPLz8+fNsYWgfKPvXL9+nY2qSrc42aQ9evSIZRMJyMnJmTfHFoI+Ry2TypGmpiYmXklxskijCzx37hy7tywrK+PaQ0ufP3bsGGttDQ0NrJsqJS7o0ujCKisr2eM5dJvkr6y50H6PlpYW1mrpfyshLqjS6IKoOKVygTLJGoDn0Kl7FxQUsG7a2dmpiLigSqMco4vLysrC1q1b31nYLHv27GFdnFobPd793kijbe7nz59nC8fl5eUBX8ekbnrt2jU0NzfLnm9BkUbCLly4wCYUKyoqAtbC5nLixAnW2uQWF3BpdPJ0i/TkyRPYbLaA5NhCzOYbjaZdXV2y5VvApXV3d7OyICMjA9u2bQuasFko36h+oxGVJjLlIOB7OairkKjc3NygC3uVqqoqNpGZmZkZ9N9V1QaYpULQRs/3GSHNb4B/ATjHg9VyRplsAAAAAElFTkSuQmCC;" vertex="1" parent="1">
          <mxGeometry y="602.5" width="77" height="85" as="geometry" />
        </mxCell>
        <mxCell id="LF6kgBspMSefZ2zHdYAv-9" value="" style="shape=image;verticalLabelPosition=bottom;labelBackgroundColor=default;verticalAlign=top;aspect=fixed;imageAspect=0;image=data:image/png,iVBORw0KGgoAAAANSUhEUgAAAE0AAABVCAYAAAAMjGlGAAAAAXNSR0IArs4c6QAAAARnQU1BAACxjwv8YQUAAAAJcEhZcwAAEnQAABJ0Ad5mH3gAAAZbSURBVHhe7ZvtT1NXHMe/pYW20Fae5GFAEQISncTnoBKKzKhLKDAmwsu98I1vNMbE+MLoP2F8Ykt0L+aSZWRzi2MSecYHHEapIIvTyQaOJ3kooC1C6+7vrCwGQemxvfei55M0JLctvfeTc77nd885V/NSAgK/CPH9FfiBkMaBkMaBkMaBkMaBkMaBkMaBkMaBkMaBkMaBkMaBkMaBkMaBkMaBkMaBkMaBkMaBkMaBkMaBkMaBKhZWnE4nenp62Cs0NBSpqalITk6G0Wj0fUJdKCptcHAQP1f/irr6Bky4pxEeZ4Vn5gVcQ72Ii45CaZEdtrxcWCwWaDQa37eURzFpd9sduPjd9+jXRsO04mPoDOHQR1jg9Xrw4vkEZtwujDiasMEai4qyUqRaraoRp4i0uw4HvvmhGoNhsfhoQz5M0XEI0Wp97/6HZ2YGzgGpy96oxvr4CFR8ZpfEpahCnOwDAXXJny5Xow8mWLfsgjk24TVhhFanQ3RSGtK3f44bD3rR2NKC8YkJKJgm/yO7tPrGZvw9E4GkTTtgtES9teWQ1FRbCZo6HuN+1+8fnrTx8XEpy9ox6dXBvDxh0V1teVoWuvsG8eDBH5iamvIdVQ5ZpfX19bFRMsxkQUjI611yIbS6UBiWxaBvaAhjY2OKtzZZpQ0PD+Nl+DKYYhKlIci/QI+2rsS424MJKdeURlZp4eHhwNRzTD1z+o4snmfD/dBrNdDr9b4jyiGrtMTEROi8bkyODEHqY76ji2P0n27ERpoQGRnpO6IcskqLiYnBCqlI1Uu/Oi0Vr4vFNTGGSFM4K3AjIiIUr9VklaaTaq9dOz6BebwHf91plhqb1/fOm3FcvohNaQlYm50tDSCynvK8yH4GmRkZ2G3LwfTjdvR2tL11JOys+xGJmknstOUiIT5OFXcEitxGTU5Ooqa+Ed9e+gX6lVuQmfspwozSIPEKrgkn7lz6GvFeJ74oL8Wm9WthMOg/XGkEieu834Wq6lo0t/6GlzoDtEYTk/JsdBBmox72gjwU7tyO9LR01QgjFJ0amp6exvDICJtH+/NxNyq//AopKSkoKbYzUcnJSVhmsUAr3ZuqRRihqLRZPB4P3G43Dhw4gHXr1mHfvn1sAlINoT8fqjgraklUSoSFhTFZahZGqPfMVIyQxoGQxoGQxoGQxkHAS46bN2/i5MmTaG1t9R1ZPENDQ2zqh5bs/KWwsBAHDx5Eenp60Gu6gEtzuVwYHR1lf/3l+PHjWLNmDfbu3et3yWEymRAVFcUWm5ectHdh//792LhxIytuRZ32niGkcSCkcaBJSkoKaKYZDAYcPnyY5ZO/ubRUMk3T29sbUGk0cpnNZjaa+TuKLRlpYvT0H5FpHAhpHAhpHAhpHAhpHAhpHAhpHKhKGk3t0KqU2lGNtFOnTrG1z6tXr+LKlSvwehe3OUYJVCGNJD19+pRNPtrtdrS1tcHhcKhiU/J8KC7t4cOHqK+vR3Z2NjZv3ozi4mJ209/Y2Ij+/n5VilNcGnVLeg6qqKiI7V+j16FDh9DR0YGamhohbS6nT59mW0pJ2KubXGien8S1t7ezjFNbvikmjVoRrT7l5eWxnUJzp5FWrVrF3qPVrXv37qmqxSkibTbHVq9ezXKMhM2VRlNDJSUlbFOM2vJNEWlnzpxBfHw8SktL37j3jMQdOXIEt2/fRl1d3Ycr7ezZs4iNjWXCSMpCwmYhqUePHsWtW7dQW1urinyTVRrl2MDAAPLz8+fNsYWgfKPvXL9+nY2qSrc42aQ9evSIZRMJyMnJmTfHFoI+Ry2TypGmpiYmXklxskijCzx37hy7tywrK+PaQ0ufP3bsGGttDQ0NrJsqJS7o0ujCKisr2eM5dJvkr6y50H6PlpYW1mrpfyshLqjS6IKoOKVygTLJGoDn0Kl7FxQUsG7a2dmpiLigSqMco4vLysrC1q1b31nYLHv27GFdnFobPd793kijbe7nz59nC8fl5eUBX8ekbnrt2jU0NzfLnm9BkUbCLly4wCYUKyoqAtbC5nLixAnW2uQWF3BpdPJ0i/TkyRPYbLaA5NhCzOYbjaZdXV2y5VvApXV3d7OyICMjA9u2bQuasFko36h+oxGVJjLlIOB7OairkKjc3NygC3uVqqoqNpGZmZkZ9N9V1QaYpULQRs/3GSHNb4B/ATjHg9VyRplsAAAAAElFTkSuQmCC;" vertex="1" parent="1">
          <mxGeometry x="1173" y="630" width="77" height="85" as="geometry" />
        </mxCell>
        <mxCell id="LF6kgBspMSefZ2zHdYAv-12" value="&lt;font style=&quot;font-size: 24px;&quot;&gt;&lt;b&gt;Admin&amp;nbsp;&lt;/b&gt;&lt;/font&gt;" style="text;html=1;align=center;verticalAlign=middle;resizable=0;points=[];autosize=1;strokeColor=none;fillColor=none;" vertex="1" parent="1">
          <mxGeometry x="1250" y="982.5" width="100" height="40" as="geometry" />
        </mxCell>
        <mxCell id="LF6kgBspMSefZ2zHdYAv-14" value="&lt;font style=&quot;font-size: 24px;&quot;&gt;&lt;b&gt;Guest&lt;/b&gt;&lt;/font&gt;" style="text;html=1;align=center;verticalAlign=middle;resizable=0;points=[];autosize=1;strokeColor=none;fillColor=none;" vertex="1" parent="1">
          <mxGeometry x="-85" y="1135" width="90" height="40" as="geometry" />
        </mxCell>
        <mxCell id="LF6kgBspMSefZ2zHdYAv-16" value="&lt;font style=&quot;font-size: 24px;&quot;&gt;&lt;b&gt;Professor&lt;/b&gt;&lt;/font&gt;" style="text;html=1;align=center;verticalAlign=middle;resizable=0;points=[];autosize=1;strokeColor=none;fillColor=none;" vertex="1" parent="1">
          <mxGeometry x="1240" y="652.5" width="140" height="40" as="geometry" />
        </mxCell>
        <mxCell id="LF6kgBspMSefZ2zHdYAv-17" value="&lt;font style=&quot;font-size: 24px;&quot;&gt;&lt;b&gt;Gmail Server&lt;br&gt;(App)&lt;/b&gt;&lt;/font&gt;" style="text;html=1;align=center;verticalAlign=middle;resizable=0;points=[];autosize=1;strokeColor=none;fillColor=none;" vertex="1" parent="1">
          <mxGeometry x="-150" y="927.5" width="170" height="70" as="geometry" />
        </mxCell>
        <mxCell id="LF6kgBspMSefZ2zHdYAv-18" value="&lt;font style=&quot;font-size: 24px;&quot;&gt;&lt;b&gt;Student&lt;/b&gt;&lt;/font&gt;" style="text;html=1;align=center;verticalAlign=middle;resizable=0;points=[];autosize=1;strokeColor=none;fillColor=none;" vertex="1" parent="1">
          <mxGeometry x="-95" y="630" width="110" height="40" as="geometry" />
        </mxCell>
        <mxCell id="LF6kgBspMSefZ2zHdYAv-20" value="" style="rounded=0;whiteSpace=wrap;html=1;fillColor=#3377FF;" vertex="1" parent="1">
          <mxGeometry x="240" y="782.5" width="760" height="200" as="geometry" />
        </mxCell>
        <mxCell id="LF6kgBspMSefZ2zHdYAv-33" value="Email" style="text;html=1;align=center;verticalAlign=middle;resizable=0;points=[];autosize=1;strokeColor=none;fillColor=#99CCFF;" vertex="1" parent="1">
          <mxGeometry x="680" y="770" width="50" height="30" as="geometry" />
        </mxCell>
        <mxCell id="LF6kgBspMSefZ2zHdYAv-39" value="" style="rounded=0;whiteSpace=wrap;html=1;fillColor=#3377FF;" vertex="1" parent="1">
          <mxGeometry x="245" y="1190" width="740" height="150" as="geometry" />
        </mxCell>
        <mxCell id="LF6kgBspMSefZ2zHdYAv-40" value="" style="rounded=0;whiteSpace=wrap;html=1;fillColor=#3377FF;" vertex="1" parent="1">
          <mxGeometry x="250" y="1022.5" width="740" height="125" as="geometry" />
        </mxCell>
        <mxCell id="LF6kgBspMSefZ2zHdYAv-41" value="" style="rounded=0;whiteSpace=wrap;html=1;fillColor=#3377FF;" vertex="1" parent="1">
          <mxGeometry x="240" y="568.75" width="750" height="181.25" as="geometry" />
        </mxCell>
        <mxCell id="LF6kgBspMSefZ2zHdYAv-92" style="edgeStyle=orthogonalEdgeStyle;rounded=0;orthogonalLoop=1;jettySize=auto;html=1;entryX=0.781;entryY=-0.004;entryDx=0;entryDy=0;entryPerimeter=0;" edge="1" parent="1" source="LF6kgBspMSefZ2zHdYAv-44" target="LF6kgBspMSefZ2zHdYAv-2">
          <mxGeometry relative="1" as="geometry">
            <mxPoint x="840" y="530" as="targetPoint" />
            <Array as="points">
              <mxPoint x="840" y="470" />
              <mxPoint x="840" y="537" />
            </Array>
          </mxGeometry>
        </mxCell>
        <mxCell id="LF6kgBspMSefZ2zHdYAv-44" value="&lt;font style=&quot;font-size: 24px;&quot;&gt;Project Boundary&amp;nbsp;&lt;/font&gt;" style="text;html=1;align=center;verticalAlign=middle;resizable=0;points=[];autosize=1;strokeColor=none;fillColor=#FF9999;" vertex="1" parent="1">
          <mxGeometry x="490" y="450" width="210" height="40" as="geometry" />
        </mxCell>
        <mxCell id="LF6kgBspMSefZ2zHdYAv-47" value="&lt;font style=&quot;font-size: 18px;&quot;&gt;Project&amp;nbsp; Platform&lt;/font&gt;" style="text;html=1;align=center;verticalAlign=middle;resizable=0;points=[];autosize=1;strokeColor=none;fillColor=#99CCFF;" vertex="1" parent="1">
          <mxGeometry x="500" y="548.75" width="160" height="40" as="geometry" />
        </mxCell>
        <mxCell id="LF6kgBspMSefZ2zHdYAv-49" value="News bulletin" style="text;html=1;align=center;verticalAlign=middle;resizable=0;points=[];autosize=1;strokeColor=none;fillColor=#99CCFF;" vertex="1" parent="1">
          <mxGeometry x="532.5" y="1010" width="90" height="30" as="geometry" />
        </mxCell>
        <mxCell id="LF6kgBspMSefZ2zHdYAv-59" value="&lt;font style=&quot;font-size: 18px;&quot;&gt;&lt;b&gt;Provide Email Server&lt;/b&gt;&lt;/font&gt;" style="ellipse;whiteSpace=wrap;html=1;" vertex="1" parent="1">
          <mxGeometry x="545" y="880" width="165" height="70" as="geometry" />
        </mxCell>
        <mxCell id="LF6kgBspMSefZ2zHdYAv-60" value="&lt;font style=&quot;font-size: 18px;&quot;&gt;&lt;b&gt;Change Labels of Email Categories&lt;/b&gt;&lt;/font&gt;" style="ellipse;whiteSpace=wrap;html=1;" vertex="1" parent="1">
          <mxGeometry x="660" y="1250" width="230" height="80" as="geometry" />
        </mxCell>
        <mxCell id="LF6kgBspMSefZ2zHdYAv-61" value="&lt;font style=&quot;font-size: 18px;&quot;&gt;&lt;b&gt;Update latest news&lt;/b&gt;&lt;/font&gt;" style="ellipse;whiteSpace=wrap;html=1;" vertex="1" parent="1">
          <mxGeometry x="710" y="1050" width="140" height="70" as="geometry" />
        </mxCell>
        <mxCell id="LF6kgBspMSefZ2zHdYAv-62" value="&lt;font style=&quot;font-size: 18px;&quot;&gt;&lt;b&gt;Read Latest news in IIT Indore&lt;/b&gt;&lt;/font&gt;" style="ellipse;whiteSpace=wrap;html=1;" vertex="1" parent="1">
          <mxGeometry x="345" y="1040" width="185" height="95" as="geometry" />
        </mxCell>
        <mxCell id="LF6kgBspMSefZ2zHdYAv-65" value="&lt;font style=&quot;font-size: 18px;&quot;&gt;&lt;b&gt;Add new Admins&lt;/b&gt;&lt;/font&gt;" style="ellipse;whiteSpace=wrap;html=1;" vertex="1" parent="1">
          <mxGeometry x="350" y="1210" width="200" height="70" as="geometry" />
        </mxCell>
        <mxCell id="LF6kgBspMSefZ2zHdYAv-67" value="Maintainance" style="text;html=1;align=center;verticalAlign=middle;resizable=0;points=[];autosize=1;strokeColor=none;fillColor=#99CCFF;" vertex="1" parent="1">
          <mxGeometry x="650" y="1175" width="90" height="30" as="geometry" />
        </mxCell>
        <mxCell id="LF6kgBspMSefZ2zHdYAv-68" value="&lt;font style=&quot;font-size: 18px;&quot;&gt;&lt;b&gt;See Emails sorted by Labels(Categories)&lt;/b&gt;&lt;/font&gt;" style="ellipse;whiteSpace=wrap;html=1;" vertex="1" parent="1">
          <mxGeometry x="302.5" y="800" width="215" height="90" as="geometry" />
        </mxCell>
        <mxCell id="LF6kgBspMSefZ2zHdYAv-69" value="&lt;font style=&quot;font-size: 18px;&quot;&gt;&lt;b&gt;Send Emails&amp;nbsp;&lt;/b&gt;&lt;/font&gt;" style="ellipse;whiteSpace=wrap;html=1;" vertex="1" parent="1">
          <mxGeometry x="740" y="817.5" width="160" height="72.5" as="geometry" />
        </mxCell>
        <mxCell id="LF6kgBspMSefZ2zHdYAv-70" value="&lt;font style=&quot;font-size: 18px;&quot;&gt;&lt;b&gt;Search Project&lt;/b&gt;&lt;/font&gt;" style="ellipse;whiteSpace=wrap;html=1;" vertex="1" parent="1">
          <mxGeometry x="520" y="657.5" width="180" height="62.5" as="geometry" />
        </mxCell>
        <mxCell id="LF6kgBspMSefZ2zHdYAv-71" value="&lt;font style=&quot;font-size: 18px;&quot;&gt;&lt;b&gt;Apply to project&lt;/b&gt;&lt;/font&gt;" style="ellipse;whiteSpace=wrap;html=1;fillColor=#FFFFFF;" vertex="1" parent="1">
          <mxGeometry x="320" y="588.75" width="180" height="77.5" as="geometry" />
        </mxCell>
        <mxCell id="LF6kgBspMSefZ2zHdYAv-72" value="&lt;font style=&quot;font-size: 18px;&quot;&gt;&lt;b&gt;Add Project&amp;nbsp;&lt;/b&gt;&lt;/font&gt;" style="ellipse;whiteSpace=wrap;html=1;" vertex="1" parent="1">
          <mxGeometry x="710" y="590" width="170" height="67.5" as="geometry" />
        </mxCell>
        <mxCell id="LF6kgBspMSefZ2zHdYAv-80" style="edgeStyle=orthogonalEdgeStyle;rounded=0;orthogonalLoop=1;jettySize=auto;html=1;entryX=1;entryY=0.5;entryDx=0;entryDy=0;" edge="1" parent="1" source="LF6kgBspMSefZ2zHdYAv-9" target="LF6kgBspMSefZ2zHdYAv-70">
          <mxGeometry relative="1" as="geometry" />
        </mxCell>
        <mxCell id="LF6kgBspMSefZ2zHdYAv-79" style="edgeStyle=orthogonalEdgeStyle;rounded=0;orthogonalLoop=1;jettySize=auto;html=1;entryX=1;entryY=0.5;entryDx=0;entryDy=0;" edge="1" parent="1" source="LF6kgBspMSefZ2zHdYAv-9" target="LF6kgBspMSefZ2zHdYAv-72">
          <mxGeometry relative="1" as="geometry" />
        </mxCell>
        <mxCell id="LF6kgBspMSefZ2zHdYAv-78" style="edgeStyle=orthogonalEdgeStyle;rounded=0;orthogonalLoop=1;jettySize=auto;html=1;entryX=1;entryY=0.5;entryDx=0;entryDy=0;" edge="1" parent="1" source="LF6kgBspMSefZ2zHdYAv-9" target="LF6kgBspMSefZ2zHdYAv-69">
          <mxGeometry relative="1" as="geometry" />
        </mxCell>
        <mxCell id="LF6kgBspMSefZ2zHdYAv-85" style="edgeStyle=orthogonalEdgeStyle;rounded=0;orthogonalLoop=1;jettySize=auto;html=1;entryX=1;entryY=0.5;entryDx=0;entryDy=0;" edge="1" parent="1" source="LF6kgBspMSefZ2zHdYAv-4" target="LF6kgBspMSefZ2zHdYAv-65">
          <mxGeometry relative="1" as="geometry">
            <Array as="points">
              <mxPoint x="1120" y="1002" />
              <mxPoint x="1120" y="1245" />
            </Array>
          </mxGeometry>
        </mxCell>
        <mxCell id="LF6kgBspMSefZ2zHdYAv-81" style="edgeStyle=orthogonalEdgeStyle;rounded=0;orthogonalLoop=1;jettySize=auto;html=1;entryX=1;entryY=0.5;entryDx=0;entryDy=0;" edge="1" parent="1" source="LF6kgBspMSefZ2zHdYAv-4" target="LF6kgBspMSefZ2zHdYAv-61">
          <mxGeometry relative="1" as="geometry" />
        </mxCell>
        <mxCell id="LF6kgBspMSefZ2zHdYAv-86" style="edgeStyle=orthogonalEdgeStyle;rounded=0;orthogonalLoop=1;jettySize=auto;html=1;" edge="1" parent="1" source="LF6kgBspMSefZ2zHdYAv-8" target="LF6kgBspMSefZ2zHdYAv-71">
          <mxGeometry relative="1" as="geometry">
            <Array as="points">
              <mxPoint x="190" y="645" />
              <mxPoint x="190" y="628" />
            </Array>
          </mxGeometry>
        </mxCell>
        <mxCell id="LF6kgBspMSefZ2zHdYAv-88" style="edgeStyle=orthogonalEdgeStyle;rounded=0;orthogonalLoop=1;jettySize=auto;html=1;entryX=0;entryY=0.5;entryDx=0;entryDy=0;" edge="1" parent="1" source="LF6kgBspMSefZ2zHdYAv-8" target="LF6kgBspMSefZ2zHdYAv-70">
          <mxGeometry relative="1" as="geometry" />
        </mxCell>
        <mxCell id="LF6kgBspMSefZ2zHdYAv-89" style="edgeStyle=orthogonalEdgeStyle;rounded=0;orthogonalLoop=1;jettySize=auto;html=1;entryX=0;entryY=0.5;entryDx=0;entryDy=0;" edge="1" parent="1" source="LF6kgBspMSefZ2zHdYAv-7" target="LF6kgBspMSefZ2zHdYAv-59">
          <mxGeometry relative="1" as="geometry" />
        </mxCell>
        <mxCell id="LF6kgBspMSefZ2zHdYAv-90" style="edgeStyle=orthogonalEdgeStyle;rounded=0;orthogonalLoop=1;jettySize=auto;html=1;entryX=0;entryY=0.5;entryDx=0;entryDy=0;fillColor=#FFFFFF;" edge="1" parent="1" source="LF6kgBspMSefZ2zHdYAv-8" target="LF6kgBspMSefZ2zHdYAv-68">
          <mxGeometry relative="1" as="geometry" />
        </mxCell>
        <mxCell id="LF6kgBspMSefZ2zHdYAv-91" style="edgeStyle=orthogonalEdgeStyle;rounded=0;orthogonalLoop=1;jettySize=auto;html=1;entryX=1;entryY=0.5;entryDx=0;entryDy=0;" edge="1" parent="1" source="LF6kgBspMSefZ2zHdYAv-4" target="LF6kgBspMSefZ2zHdYAv-60">
          <mxGeometry relative="1" as="geometry">
            <Array as="points">
              <mxPoint x="1060" y="1003" />
              <mxPoint x="1060" y="1290" />
            </Array>
          </mxGeometry>
        </mxCell>
        <mxCell id="LF6kgBspMSefZ2zHdYAv-98" style="edgeStyle=orthogonalEdgeStyle;rounded=0;orthogonalLoop=1;jettySize=auto;html=1;" edge="1" parent="1" source="LF6kgBspMSefZ2zHdYAv-6" target="LF6kgBspMSefZ2zHdYAv-62">
          <mxGeometry relative="1" as="geometry">
            <Array as="points">
              <mxPoint x="180" y="1153" />
              <mxPoint x="180" y="1088" />
            </Array>
          </mxGeometry>
        </mxCell>
      </root>
    </mxGraphModel>
  </diagram>
</mxfile>
